<svg xmlns="http://www.w3.org/2000/svg" viewBox="0 0 241 42" preserveAspectRatio="none"><title>Artboard 1</title><path d="M240.12,15.55c0-4-.62-9-1.12-10.3C237.92,2.42,236,0,231,0c-24.14,0-40.08,1.49-60.65,1.49S122.1,0,104.71,0,84.15,1.23,61.78,1.23C41.17,1.23,24.89,0,10,0,5.38,0,3,2.42,2,4.34.87,6.51,0,9.62,0,14.66S2.63,27.73,2.63,32.51C2.63,37.76,4.13,42,10,42c18.46,0,26.24-.84,39.72-.84,6.1,0,30.77.84,57.12.84,31.85,0,65.63-1.23,84.08-1.23S212.21,42,231,42c5.33,0,10-3.52,10-12.72C241,24.14,240.12,20.33,240.12,15.55Z" style="fill:#a02252;fill-rule:evenodd"/></svg>
